<?xml version="1.0" standalone="no"?>
<!DOCTYPE svg PUBLIC "-//W3C//DTD SVG 20010904//EN"
 "http://www.w3.org/TR/2001/REC-SVG-20010904/DTD/svg10.dtd">
<svg version="1.0" xmlns="http://www.w3.org/2000/svg"
 width="1672.000000pt" height="941.000000pt" viewBox="0 0 1672.000000 941.000000"
 preserveAspectRatio="xMidYMid meet">

<g transform="translate(0.000000,941.000000) scale(0.100000,-0.100000)"
fill="#000000" stroke="none">
<path d="M4251 6842 c-14 -69 -48 -156 -72 -186 -27 -35 -87 -65 -178 -90 -80
-23 -100 -42 -54 -51 207 -46 253 -86 294 -263 17 -73 25 -92 37 -90 10 2 20
20 25 43 22 100 50 177 74 205 33 40 103 75 182 91 57 12 83 30 68 45 -3 3
-36 13 -74 21 -83 19 -154 53 -182 88 -27 35 -57 118 -66 183 -5 41 -11 52
-25 52 -14 0 -21 -12 -29 -48z"/>
<path d="M1871 6134 c-116 -31 -202 -100 -258 -206 l-28 -53 -3 -1147 -2
-1148 44 0 c24 0 51 -3 60 -6 15 -6 16 96 16 1103 0 1225 -3 1168 63 1255 22
29 55 54 97 75 l65 32 760 2 c418 1 770 1 783 0 l22 -1 0 -215 c0 -234 4 -254
54 -284 27 -16 61 -20 252 -26 l221 -7 7 -76 c3 -41 6 -149 6 -240 l0 -165 30
45 c17 25 37 52 45 58 21 18 21 273 0 353 -31 120 -104 234 -242 378 -120 125
-204 188 -313 236 l-85 37 -405 7 c-718 12 -1128 10 -1189 -7z"/>
<path d="M2044 5745 c-38 -26 -46 -64 -42 -214 3 -138 3 -141 31 -168 l27 -28
461 0 461 0 29 33 29 32 0 151 0 151 -29 29 -29 29 -459 0 c-386 0 -462 -2
-479 -15z m236 -130 l5 -40 34 43 c23 28 42 42 58 42 31 0 29 -18 -7 -60 -17
-19 -30 -38 -30 -42 0 -4 16 -30 35 -57 19 -26 35 -51 35 -55 0 -3 -13 -6 -29
-6 -22 0 -35 9 -56 40 -15 22 -32 40 -36 40 -5 0 -9 -18 -9 -40 0 -38 -2 -40
-30 -40 l-30 0 0 111 0 110 28 -3 c23 -3 28 -8 32 -43z m325 20 c0 -15 -8 -21
-32 -23 l-33 -3 0 -85 c0 -83 0 -84 -25 -84 -25 0 -25 1 -25 84 l0 85 -32 3
c-26 2 -34 8 -36 26 -3 22 -2 23 90 20 85 -3 93 -5 93 -23z m215 -85 l0 -110
-25 0 c-25 0 -25 1 -25 85 l0 85 -40 0 -39 0 -3 -87 c-3 -86 -3 -88 -28 -88
l-25 0 -3 113 -3 112 96 0 95 0 0 -110z"/>
<path d="M11777 5139 c-46 -27 -47 -46 -47 -634 0 -662 -7 -625 116 -625 45 0
59 4 80 25 l24 25 -2 586 -3 586 -28 24 c-21 18 -40 24 -75 24 -26 0 -55 -5
-65 -11z"/>
<path d="M12174 5121 c-20 -12 -38 -36 -48 -63 -22 -58 -6 -112 43 -145 124
-84 269 84 163 190 -40 39 -111 48 -158 18z"/>
<path d="M4271 5044 c0 -11 3 -14 6 -6 3 7 2 16 -1 19 -3 4 -6 -2 -5 -13z"/>
<path d="M4595 5010 c-10 -11 -22 -17 -28 -13 -5 3 -7 2 -4 -4 3 -5 -5 -22
-19 -39 -24 -28 -25 -28 -9 -2 23 37 15 50 -13 24 -19 -19 -20 -24 -9 -40 12
-16 17 -13 61 38 44 52 61 80 21 36z"/>
<path d="M4155 5000 c-3 -5 -3 -10 2 -10 4 0 0 -5 -9 -11 -10 -5 -22 -20 -28
-32 -11 -22 -11 -22 6 1 9 12 23 22 30 22 8 0 14 9 14 20 0 22 -5 26 -15 10z"/>
<path d="M4260 4865 c0 -52 -4 -95 -9 -95 -5 0 -23 35 -40 78 -17 42 -30 72
-31 66 0 -9 -11 -9 -37 -3 -48 11 -57 0 -116 -136 -101 -228 -122 -457 -61
-646 15 -46 15 -46 -22 -110 -105 -185 -163 -316 -219 -497 -8 -23 75 28 119
74 40 42 88 122 182 304 l39 74 125 36 c240 69 370 141 523 289 85 83 197 216
197 235 0 3 -38 6 -84 6 -96 0 -206 10 -206 19 0 3 21 15 48 25 84 35 312 145
312 152 0 3 -7 4 -15 0 -8 -3 -14 -2 -14 2 3 21 -2 43 -9 38 -5 -3 -16 4 -25
15 -9 10 -23 19 -32 19 -8 0 -19 9 -25 19 -5 11 -20 23 -32 27 -13 4 -26 11
-29 17 -9 13 -121 10 -129 -3 -4 -6 -14 -8 -23 -5 -8 4 -26 1 -39 -6 -13 -7
-27 -13 -32 -14 -13 0 -181 -251 -276 -411 -43 -72 -124 -216 -180 -319 -113
-208 -122 -225 -130 -225 -3 0 -18 11 -34 24 l-30 23 62 125 c110 223 271 488
435 718 49 69 82 118 72 109 -15 -15 -20 -15 -58 5 -23 12 -53 23 -65 23 -13
1 -41 11 -63 22 -22 12 -42 21 -44 21 -3 0 -5 -43 -5 -95z m31 -8 c-13 -13
-26 -3 -16 12 3 6 11 8 17 5 6 -4 6 -10 -1 -17z"/>
<path d="M4605 4894 c-15 -19 -25 -38 -22 -41 3 -2 13 7 22 21 10 14 20 24 24
22 4 -3 7 4 7 15 0 10 -1 19 -2 19 -1 0 -14 -16 -29 -36z"/>
<path d="M2296 4912 c-3 -6 -1 -14 5 -17 14 -9 20 -2 10 14 -6 8 -11 9 -15 3z"/>
<path d="M5024 4764 c-18 -14 -18 -15 4 -4 12 6 22 13 22 15 0 8 -5 6 -26 -11z"/>
<path d="M6070 4766 c-81 -17 -144 -53 -201 -113 -96 -102 -111 -173 -107
-496 3 -237 3 -239 27 -258 16 -13 39 -19 76 -19 113 0 115 6 115 307 0 131 5
255 10 275 13 44 66 93 119 109 76 23 159 -13 191 -84 18 -38 20 -67 20 -290
0 -313 1 -317 116 -317 45 0 59 4 79 25 l25 24 0 257 c0 240 1 261 21 300 28
59 78 89 149 89 66 -1 112 -24 143 -75 21 -33 22 -49 27 -308 5 -273 5 -274
29 -293 16 -13 39 -19 76 -19 112 0 115 7 115 293 0 243 -9 315 -47 394 -105
214 -401 276 -577 122 l-46 -40 -36 35 c-45 44 -103 73 -173 86 -65 12 -80 12
-151 -4z"/>
<path d="M12838 4770 c-116 -20 -213 -89 -269 -192 l-34 -63 -3 -297 c-3 -288
-2 -298 17 -317 16 -16 34 -21 75 -21 115 0 116 3 116 322 0 243 1 255 23 292
25 45 93 86 141 86 54 0 117 -40 143 -89 22 -43 23 -53 23 -301 0 -245 1 -259
21 -284 18 -23 27 -26 83 -26 52 0 66 4 84 23 21 23 22 31 22 258 1 129 5 254
9 278 12 58 38 91 94 120 81 40 169 11 215 -73 15 -27 17 -69 20 -296 3 -253
4 -266 24 -287 18 -19 32 -23 84 -23 56 0 65 3 84 27 21 27 21 34 18 313 l-3
285 -28 57 c-16 32 -48 77 -72 102 -136 140 -371 149 -507 18 l-37 -35 -40 36
c-53 48 -104 73 -176 86 -64 12 -60 12 -127 1z"/>
<path d="M9189 4751 c-106 -34 -213 -129 -264 -236 -23 -49 -29 -77 -33 -151
-7 -154 23 -246 116 -346 89 -96 211 -145 337 -135 82 6 125 23 190 72 l47 37
-3 -75 c-5 -94 -40 -157 -114 -202 -45 -28 -56 -30 -139 -30 -98 0 -131 11
-194 66 -27 24 -42 29 -83 29 -43 0 -55 -5 -80 -29 -43 -44 -39 -75 19 -130
82 -80 214 -131 336 -131 238 0 424 150 456 367 5 37 10 234 10 436 0 405 -2
422 -59 451 -16 9 -39 16 -51 16 -35 0 -79 -29 -86 -55 -3 -14 -9 -25 -13 -25
-3 0 -26 14 -50 30 -89 60 -229 77 -342 41z m232 -183 c54 -16 113 -69 140
-126 30 -60 32 -169 5 -222 -34 -65 -67 -100 -118 -126 -44 -22 -61 -26 -124
-22 -61 3 -79 8 -116 34 -24 16 -57 54 -75 83 -124 207 59 448 288 379z"/>
<path d="M10273 4760 c-100 -23 -207 -103 -262 -194 -37 -62 -71 -177 -71
-241 0 -170 95 -332 236 -403 154 -78 322 -63 437 38 l37 32 0 -31 c0 -51 38
-81 100 -81 41 0 56 5 75 25 l25 24 0 383 c0 425 1 416 -66 438 -19 7 -47 9
-62 5 -31 -8 -72 -43 -72 -62 0 -18 -3 -17 -52 16 -65 43 -131 61 -217 60 -42
-1 -90 -4 -108 -9z m222 -204 c101 -46 151 -137 143 -256 -9 -122 -83 -208
-198 -231 -141 -29 -273 78 -287 231 -8 83 11 141 64 200 72 80 180 102 278
56z"/>
<path d="M7309 4731 l-29 -29 0 -227 c0 -272 11 -334 73 -428 51 -76 127 -130
220 -159 102 -31 239 -23 329 19 77 36 126 78 166 141 56 87 62 129 62 409 l0
254 -25 24 c-20 21 -34 25 -80 25 -46 0 -60 -4 -80 -25 l-25 -24 0 -241 c0
-262 -4 -287 -58 -343 -42 -44 -81 -60 -147 -61 -97 0 -170 48 -200 133 -12
34 -15 92 -15 268 0 278 -5 292 -108 293 -46 0 -58 -4 -83 -29z"/>
<path d="M12159 4731 l-29 -29 0 -387 0 -386 25 -24 c20 -21 34 -25 85 -25 51
0 65 4 85 25 l25 24 0 380 c0 257 -4 388 -11 404 -14 32 -49 47 -105 47 -37 0
-51 -6 -75 -29z"/>
<path d="M2017 4562 c-15 -17 -17 -62 -17 -439 0 -394 1 -421 18 -436 17 -15
66 -17 506 -17 459 0 487 1 484 18 -3 16 -35 17 -486 20 l-482 2 0 125 0 125
698 0 c685 0 722 2 722 29 0 4 -319 5 -710 5 l-710 -1 0 128 0 129 765 0 765
0 0 -90 c0 -49 4 -90 8 -90 28 0 32 30 32 250 0 207 -2 228 -18 243 -17 16
-86 17 -789 17 -733 0 -771 -1 -786 -18z m1551 -144 l3 -128 -766 0 -765 0 0
123 c0 68 3 127 7 130 3 4 347 6 762 5 l756 -3 3 -127z"/>
<path d="M3052 4413 c2 -58 7 -88 16 -91 9 -3 12 19 12 87 0 75 -3 91 -15 91
-13 0 -15 -14 -13 -87z"/>
<path d="M2530 4385 c0 -62 11 -84 24 -49 14 37 4 114 -15 114 -5 0 -9 -29 -9
-65z"/>
<path d="M1220 4495 c0 -3 -23 -148 -51 -323 -130 -813 -155 -980 -146 -988 3
-3 65 -1 138 5 256 21 534 7 764 -40 328 -67 673 -237 869 -427 l49 -47 -36
71 c-201 399 -700 665 -1282 681 -93 3 -173 8 -176 12 -7 7 28 471 60 800 11
113 19 206 18 207 -1 1 -39 14 -85 28 -79 25 -122 32 -122 21z"/>
<path d="M11089 4405 c-53 -29 -63 -120 -18 -161 19 -17 41 -19 205 -22 l184
-3 25 25 c19 19 25 35 25 70 0 98 -18 106 -232 106 -121 -1 -170 -4 -189 -15z"/>
<path d="M8310 4388 c-28 -30 -28 -110 0 -138 19 -19 33 -20 209 -20 l190 0
20 26 c13 16 21 41 21 64 0 23 -8 48 -21 64 l-20 26 -189 0 c-182 0 -190 -1
-210 -22z"/>
<path d="M2524 4186 c-8 -21 -1 -143 9 -152 4 -4 12 -3 18 3 14 14 7 155 -8
161 -7 2 -16 -4 -19 -12z"/>
<path d="M3050 4120 c0 -64 3 -80 15 -80 12 0 15 16 15 80 0 64 -3 80 -15 80
-12 0 -15 -16 -15 -80z"/>
<path d="M977 4053 c-8 -12 -53 -247 -97 -503 -23 -129 -59 -329 -81 -445 -22
-115 -44 -235 -49 -265 -4 -30 -11 -71 -15 -91 -12 -63 -7 -64 263 -49 310 18
905 18 1092 2 169 -15 302 -35 419 -62 79 -19 87 -24 137 -75 71 -74 128 -100
224 -100 93 0 167 31 236 100 52 52 78 62 246 94 289 55 785 70 1381 41 324
-15 317 -17 299 67 -6 26 -37 192 -68 368 -74 417 -142 783 -143 769 -1 -14
-33 -13 -44 1 -5 6 -6 -8 -3 -30 24 -163 72 -471 96 -627 17 -102 30 -199 30
-213 0 -25 -2 -27 -32 -21 -190 35 -634 49 -823 26 -195 -24 -358 -59 -538
-116 -146 -46 -394 -169 -476 -235 -69 -56 -134 -82 -184 -72 -44 8 -62 19
-137 79 -196 158 -561 288 -970 346 -130 18 -628 15 -765 -5 -55 -8 -102 -13
-104 -11 -6 5 12 127 70 474 43 254 89 545 89 556 0 7 -49 4 -53 -3z"/>
<path d="M4604 4044 c-10 -8 -13 -12 -5 -8 7 3 17 0 22 -7 6 -10 9 -8 9 9 0
26 -1 26 -26 6z"/>
<path d="M4495 3983 c-44 -24 -69 -41 -55 -37 14 4 48 6 75 4 28 -1 64 -3 80
-4 17 0 33 -8 37 -16 10 -23 8 41 -2 65 -5 11 -9 16 -9 10 -1 -5 -20 -11 -43
-13 l-41 -3 24 20 c33 28 26 25 -66 -26z"/>
<path d="M4801 3987 c-1 -10 -5 -15 -11 -12 -5 3 -10 -1 -10 -9 0 -10 6 -13
15 -10 10 4 15 0 15 -12 0 -9 3 -15 6 -12 3 3 1 21 -5 39 -5 19 -10 26 -10 16z"/>
<path d="M4761 3954 c0 -11 3 -14 6 -6 3 7 2 16 -1 19 -3 4 -6 -2 -5 -13z"/>
<path d="M2533 3913 c-9 -3 -13 -29 -13 -84 0 -72 2 -79 20 -79 18 0 20 7 20
73 0 76 -7 97 -27 90z"/>
<path d="M4436 3673 l6 -243 -119 0 c-520 0 -994 -189 -1261 -503 -46 -53
-162 -227 -162 -242 0 -2 20 15 44 38 37 34 43 44 33 57 -10 13 -10 13 3 3 13
-10 32 0 111 55 396 279 958 406 1537 349 l124 -13 -5 36 c-63 436 -103 690
-105 671 -3 -17 -6 -20 -12 -11 -4 7 -13 9 -21 5 -18 -12 -120 -13 -146 -2
-12 6 -24 17 -27 26 -3 9 -3 -93 0 -226z m211 110 c-3 -10 -5 -2 -5 17 0 19 2
27 5 18 2 -10 2 -26 0 -35z"/>
<path d="M4193 3887 l-53 -11 0 -148 0 -148 60 0 60 0 0 160 c0 88 -3 159 -7
158 -5 0 -32 -6 -60 -11z"/>
</g>
</svg>
